<svg width="16" height="16" viewBox="0 0 16 16" fill="none" xmlns="http://www.w3.org/2000/svg">
<path d="M5.775 8C5.175 8 4.675 7.775 4.275 7.325C3.875 6.875 3.71667 6.35 3.8 5.75L4.125 3.3C4.25833 2.35 4.69167 1.56267 5.425 0.938C6.15833 0.312667 7.01667 0 8 0C8.98333 0 9.84167 0.312667 10.575 0.938C11.3083 1.56267 11.7417 2.35 11.875 3.3L12.2 5.75C12.2833 6.35 12.125 6.875 11.725 7.325C11.325 7.775 10.825 8 10.225 8H5.775ZM0 16V13.2C0 12.6333 0.146 12.1123 0.438 11.637C0.729334 11.1623 1.11667 10.8 1.6 10.55C2.63333 10.0333 3.68333 9.64567 4.75 9.387C5.81667 9.129 6.9 9 8 9C9.1 9 10.1833 9.129 11.25 9.387C12.3167 9.64567 13.3667 10.0333 14.4 10.55C14.8833 10.8 15.2707 11.1623 15.562 11.637C15.854 12.1123 16 12.6333 16 13.2V16H0Z" fill="#EDEDED"/>
</svg>
