<svg width="16" height="16" viewBox="0 0 16 16" fill="none" xmlns="http://www.w3.org/2000/svg">
<path d="M8 12.1905C8.53043 12.1905 9.03914 12.0299 9.41421 11.7442C9.78929 11.4584 10 11.0708 10 10.6667C10 10.2625 9.78929 9.87494 9.41421 9.58917C9.03914 9.3034 8.53043 9.14286 8 9.14286C7.46957 9.14286 6.96086 9.3034 6.58579 9.58917C6.21071 9.87494 6 10.2625 6 10.6667C6 11.0708 6.21071 11.4584 6.58579 11.7442C6.96086 12.0299 7.46957 12.1905 8 12.1905ZM14 5.33333C14.5304 5.33333 15.0391 5.49388 15.4142 5.77965C15.7893 6.06542 16 6.453 16 6.85714V14.4762C16 14.8803 15.7893 15.2679 15.4142 15.5537C15.0391 15.8395 14.5304 16 14 16H2C1.46957 16 0.960859 15.8395 0.585786 15.5537C0.210714 15.2679 0 14.8803 0 14.4762V6.85714C0 6.453 0.210714 6.06542 0.585786 5.77965C0.960859 5.49388 1.46957 5.33333 2 5.33333H3V3.80952C3 2.79918 3.52678 1.83021 4.46447 1.11578C5.40215 0.401359 6.67392 0 8 0C8.65661 0 9.30679 0.0985363 9.91342 0.289983C10.52 0.481429 11.0712 0.762037 11.5355 1.11578C11.9998 1.46953 12.3681 1.88949 12.6194 2.35168C12.8707 2.81387 13 3.30925 13 3.80952V5.33333H14ZM8 1.52381C7.20435 1.52381 6.44129 1.76463 5.87868 2.19328C5.31607 2.62193 5 3.20331 5 3.80952V5.33333H11V3.80952C11 3.20331 10.6839 2.62193 10.1213 2.19328C9.55871 1.76463 8.79565 1.52381 8 1.52381Z" fill="#EDEDED"/>
</svg>
